<svg width="202" height="102" viewBox="0 0 202 102" fill="none" xmlns="http://www.w3.org/2000/svg">
<g filter="url(#filter0_d_2098_2)">
<path d="M81.721 22.0555H87.6055V54.7863H81.721V52.2903C80.5668 53.39 79.4055 54.1859 78.2373 54.6778C77.0834 55.1553 75.8285 55.3941 74.4727 55.3941C71.4292 55.3941 68.7969 54.2148 66.5756 51.8562C64.3544 49.4832 63.2437 46.5385 63.2437 43.0223C63.2437 39.3759 64.3182 36.3879 66.4675 34.0582C68.6166 31.7286 71.2273 30.5638 74.2996 30.5638C75.7132 30.5638 77.0402 30.8315 78.2807 31.3668C79.521 31.9022 80.6675 32.7053 81.721 33.7761V22.0555ZM75.5113 36.0334C73.6794 36.0334 72.1577 36.6846 70.9461 37.9868C69.7344 39.2746 69.1286 40.9314 69.1286 42.9572C69.1286 44.9975 69.7416 46.6759 70.9677 47.9928C72.2082 49.3095 73.7299 49.9679 75.5329 49.9679C77.3936 49.9679 78.9373 49.324 80.1629 48.0362C81.3892 46.7339 82.0016 45.0336 82.0016 42.9355C82.0016 40.8808 81.3892 39.2167 80.1629 37.9434C78.9373 36.6701 77.3864 36.0334 75.5113 36.0334Z" fill="#9DA8B8"/>
<path d="M114.945 44.6936H95.9699C96.2444 46.3722 96.973 47.7106 98.1552 48.709C99.3529 49.6929 100.875 50.1849 102.72 50.1849C104.927 50.1849 106.824 49.4108 108.411 47.8625L113.387 50.2067C112.147 51.972 110.661 53.2815 108.93 54.1353C107.199 54.9745 105.144 55.3941 102.764 55.3941C99.0715 55.3941 96.0637 54.2293 93.742 51.8996C91.4195 49.5555 90.2583 46.6253 90.2583 43.1091C90.2583 39.5062 91.4126 36.5181 93.7203 34.145C96.042 31.7575 98.949 30.5638 102.44 30.5638C106.147 30.5638 109.161 31.7575 111.483 34.145C113.806 36.5181 114.967 39.6581 114.967 43.5649L114.945 44.6936ZM109.016 40.027C108.627 38.7103 107.855 37.6395 106.702 36.8148C105.562 35.99 104.235 35.5776 102.72 35.5776C101.076 35.5776 99.6343 36.0406 98.3932 36.9667C97.6149 37.5455 96.8932 38.5656 96.2296 40.027H109.016Z" fill="#9DA8B8"/>
<path d="M131.942 34.4706L128.285 38.1387C126.8 36.6629 125.451 35.9249 124.24 35.9249C123.576 35.9249 123.057 36.0695 122.681 36.359C122.307 36.6339 122.119 36.9811 122.119 37.4008C122.119 37.7191 122.235 38.0157 122.465 38.2907C122.711 38.5511 123.302 38.9129 124.24 39.376L126.403 40.4611C128.682 41.5898 130.247 42.7401 131.099 43.9122C131.949 45.0843 132.374 46.459 132.374 48.0362C132.374 50.1343 131.603 51.8852 130.06 53.2887C128.531 54.6923 126.475 55.3941 123.893 55.3941C120.461 55.3941 117.72 54.0484 115.671 51.357L119.306 47.385C119.999 48.1953 120.807 48.8537 121.73 49.3601C122.668 49.8522 123.497 50.0981 124.218 50.0981C124.997 50.0981 125.624 49.91 126.1 49.5338C126.576 49.1576 126.814 48.7235 126.814 48.2315C126.814 47.3199 125.956 46.43 124.24 45.5618L122.249 44.5634C118.441 42.6389 116.537 40.2297 116.537 37.3356C116.537 35.4691 117.251 33.8773 118.679 32.5606C120.122 31.2294 121.961 30.5638 124.196 30.5638C125.725 30.5638 127.161 30.9038 128.502 31.5839C129.857 32.2495 131.005 33.2118 131.942 34.4706Z" fill="#9DA8B8"/>
<path d="M137.147 21.4478C138.186 21.4478 139.073 21.824 139.808 22.5764C140.559 23.3288 140.934 24.2405 140.934 25.3112C140.934 26.3675 140.566 27.2719 139.83 28.0243C139.094 28.7623 138.215 29.1312 137.191 29.1312C136.138 29.1312 135.236 28.755 134.486 28.0026C133.75 27.2357 133.383 26.3096 133.383 25.2244C133.383 24.1826 133.75 23.2926 134.486 22.5547C135.222 21.8167 136.109 21.4478 137.147 21.4478ZM134.184 31.1715H140.112V54.7864H134.184V31.1715Z" fill="#9DA8B8"/>
<path d="M160.657 31.1715H166.542V51.4004C166.542 55.3941 165.742 58.3315 164.14 60.2125C161.991 62.7593 158.753 64.0326 154.425 64.0326C152.118 64.0326 150.178 63.7432 148.606 63.1644C147.033 62.5856 145.707 61.7319 144.625 60.6032C143.543 59.4891 142.743 58.1289 142.223 56.5228H148.736C149.312 57.1884 150.056 57.6876 150.964 58.0204C151.873 58.3677 152.947 58.5413 154.187 58.5413C155.774 58.5413 157.051 58.2953 158.018 57.8033C158.984 57.3114 159.662 56.6747 160.051 55.8933C160.455 55.1119 160.657 53.7663 160.657 51.8562C159.618 52.898 158.529 53.6504 157.39 54.1136C156.25 54.5621 154.96 54.7863 153.517 54.7863C150.358 54.7863 147.69 53.6432 145.512 51.357C143.334 49.0708 142.245 46.1768 142.245 42.6751C142.245 38.9273 143.398 35.9177 145.707 33.6459C147.798 31.5911 150.294 30.5638 153.193 30.5638C154.549 30.5638 155.825 30.817 157.022 31.3234C158.234 31.8154 159.446 32.6329 160.657 33.7761V31.1715ZM154.534 36.0985C152.674 36.0985 151.137 36.728 149.925 37.9868C148.714 39.2312 148.108 40.8012 148.108 42.6968C148.108 44.6646 148.729 46.278 149.969 47.537C151.209 48.7958 152.767 49.4253 154.643 49.4253C156.474 49.4253 157.981 48.8103 159.164 47.5804C160.361 46.3504 160.96 44.737 160.96 42.7401C160.96 40.7723 160.361 39.1733 159.164 37.9434C157.967 36.7135 156.423 36.0985 154.534 36.0985Z" fill="#9DA8B8"/>
<path d="M170.298 31.1715H176.183V33.5808C177.524 32.4521 178.736 31.6707 179.818 31.2366C180.914 30.788 182.032 30.5638 183.171 30.5638C185.508 30.5638 187.492 31.3813 189.121 33.0164C190.492 34.4055 191.177 36.4602 191.177 39.1806V54.7863H185.335V44.4332C185.335 41.6115 185.206 39.7377 184.946 38.8116C184.7 37.8856 184.261 37.1837 183.626 36.7063C183.006 36.2142 182.234 35.9683 181.311 35.9683C180.113 35.9683 179.082 36.3734 178.217 37.1837C177.366 37.9796 176.775 39.0865 176.443 40.5046C176.27 41.2425 176.183 42.8415 176.183 45.3014V54.7863H170.298V31.1715Z" fill="#9DA8B8"/>
</g>
<g filter="url(#filter1_d_2098_2)">
<path d="M44.9517 66.8822V69.4867C46.0191 68.416 47.173 67.6129 48.4135 67.0775C49.654 66.5421 50.9809 66.2744 52.3945 66.2744C55.4667 66.2744 58.0775 67.4392 60.2267 69.7689C62.3758 72.0985 63.4504 75.0866 63.4504 78.7333C63.4504 82.2488 62.3398 85.1938 60.1185 87.5667C57.8972 89.9256 55.2648 91.1046 52.2214 91.1046C50.8655 91.1046 49.6034 90.8659 48.4351 90.3884C47.2667 89.8961 46.1057 89.1008 44.9517 88.0008V99.1357H39.0884V66.8822H44.9517ZM51.1612 71.744C49.3006 71.744 47.7572 72.3807 46.5312 73.654C45.3051 74.9274 44.6921 76.5915 44.6921 78.6465C44.6921 80.7442 45.3051 82.4442 46.5312 83.7465C47.7572 85.0349 49.3006 85.6783 51.1612 85.6783C52.9642 85.6783 54.4788 85.0201 55.7047 83.7031C56.9452 82.3868 57.5654 80.7077 57.5654 78.6682C57.5654 76.6421 56.9596 74.9853 55.7481 73.6974C54.5364 72.3952 53.0075 71.744 51.1612 71.744Z" fill="#65758C"/>
<path d="M89.7077 80.4039H70.7329C71.007 82.0829 71.7353 83.4209 72.9181 84.4194C74.1153 85.4039 75.637 85.8953 77.4833 85.8953C79.6899 85.8953 81.5868 85.1217 83.1736 83.5729L88.1496 85.917C86.9093 87.6829 85.424 88.9922 83.693 89.8457C81.962 90.6853 79.9062 91.1046 77.5263 91.1046C73.834 91.1046 70.8267 89.9395 68.5044 87.6101C66.1822 85.2659 65.021 82.3357 65.021 78.8201C65.021 75.2168 66.1749 72.2288 68.4828 69.8557C70.805 67.4681 73.7115 66.2744 77.202 66.2744C80.9093 66.2744 83.9232 67.4681 86.2457 69.8557C88.5682 72.2288 89.7294 75.3688 89.7294 79.276L89.7077 80.4039ZM83.7791 75.7377C83.3899 74.4209 82.6186 73.3501 81.4643 72.5254C80.3248 71.7006 78.9977 71.2882 77.4833 71.2882C75.839 71.2882 74.3966 71.7512 73.1561 72.6774C72.3772 73.2561 71.656 74.2763 70.9925 75.7377H83.7791Z" fill="#65758C"/>
<path d="M92.2954 66.8822H98.1799V69.2914C99.5218 68.1627 100.733 67.3813 101.815 66.9473C102.912 66.4987 104.03 66.2744 105.168 66.2744C107.505 66.2744 109.488 67.0919 111.119 68.727C112.488 70.1162 113.174 72.1708 113.174 74.8912V90.4969H107.333V80.1442C107.333 77.3222 107.202 75.4483 106.943 74.5222C106.698 73.5962 106.257 72.8944 105.623 72.4169C105.003 71.9249 104.231 71.6789 103.308 71.6789C102.111 71.6789 101.079 72.084 100.214 72.8944C99.3629 73.6902 98.7714 74.7972 98.4396 76.2152C98.2667 76.9532 98.1799 78.5519 98.1799 81.0116V90.4969H92.2954V66.8822Z" fill="#65758C"/>
<path d="M134.087 57.7661H139.972V90.4969H134.087V88.0008C132.934 89.1008 131.772 89.8961 130.604 90.3884C129.45 90.8659 128.195 91.1046 126.839 91.1046C123.796 91.1046 121.164 89.9256 118.942 87.5667C116.721 85.1938 115.61 82.2488 115.61 78.7333C115.61 75.0866 116.685 72.0985 118.834 69.7689C120.983 67.4392 123.594 66.2744 126.666 66.2744C128.08 66.2744 129.406 66.5421 130.648 67.0775C131.888 67.6129 133.034 68.416 134.087 69.4867V57.7661ZM127.878 71.744C126.046 71.744 124.524 72.3952 123.313 73.6974C122.101 74.9853 121.496 76.6421 121.496 78.6682C121.496 80.7077 122.108 82.3868 123.334 83.7031C124.575 85.0201 126.096 85.6783 127.9 85.6783C129.76 85.6783 131.303 85.0349 132.53 83.7465C133.755 82.4442 134.369 80.7442 134.369 78.6465C134.369 76.5915 133.755 74.9274 132.53 73.654C131.303 72.3807 129.753 71.744 127.878 71.744Z" fill="#65758C"/>
<path d="M143.079 66.8821H149.007V90.4969H143.079V66.8821Z" fill="#65758C"/>
<path d="M152.158 66.8822H158.043V69.2914C159.384 68.1627 160.596 67.3813 161.678 66.9473C162.774 66.4987 163.892 66.2744 165.031 66.2744C167.368 66.2744 169.351 67.0919 170.981 68.727C172.352 70.1162 173.037 72.1708 173.037 74.8912V90.4969H167.195V80.1442C167.195 77.3222 167.065 75.4483 166.805 74.5222C166.56 73.5962 166.121 72.8944 165.486 72.4169C164.865 71.9249 164.093 71.6789 163.17 71.6789C161.973 71.6789 160.942 72.084 160.076 72.8944C159.225 73.6902 158.634 74.7972 158.303 76.2152C158.129 76.9532 158.043 78.5519 158.043 81.0116V90.4969H152.158V66.8822Z" fill="#65758C"/>
<path d="M193.95 66.8822H199.834V87.1108C199.834 91.1046 199.034 94.0419 197.433 95.9232C195.284 98.4698 192.046 99.7434 187.718 99.7434C185.41 99.7434 183.471 99.4543 181.899 98.8752C180.326 98.2961 178.999 97.4426 177.917 96.3139C176.836 95.2 176.035 93.8395 175.516 92.2333H182.028C182.605 92.8992 183.348 93.3984 184.257 93.731C185.165 94.0783 186.24 94.2519 187.48 94.2519C189.067 94.2519 190.344 94.0062 191.31 93.5139C192.276 93.0217 192.954 92.3853 193.344 91.6039C193.747 90.8225 193.95 89.4767 193.95 87.5667C192.911 88.6085 191.822 89.3612 190.682 89.824C189.543 90.2729 188.252 90.4969 186.809 90.4969C183.651 90.4969 180.982 89.3543 178.804 87.0674C176.626 84.7814 175.537 81.8876 175.537 78.386C175.537 74.638 176.692 71.6283 178.999 69.3565C181.091 67.3018 183.586 66.2744 186.485 66.2744C187.841 66.2744 189.117 66.5276 190.315 67.0341C191.526 67.526 192.738 68.3436 193.95 69.4867V66.8822ZM187.826 71.8091C185.966 71.8091 184.43 72.4386 183.218 73.6974C182.006 74.9419 181.401 76.5119 181.401 78.4077C181.401 80.3752 182.021 81.9884 183.261 83.2473C184.502 84.5062 186.06 85.1356 187.935 85.1356C189.767 85.1356 191.274 84.5209 192.457 83.2907C193.654 82.0612 194.252 80.4473 194.252 78.4512C194.252 76.4829 193.654 74.884 192.457 73.654C191.259 72.4241 189.716 71.8091 187.826 71.8091Z" fill="#65758C"/>
</g>
<g filter="url(#filter2_d_2098_2)">
<path d="M56.338 4.19452L44.0614 0.256714V8.04231C44.0227 8.33084 44.0033 8.62565 44.0044 8.92526L44.0297 15.7933C39.514 13.0399 34.0657 11.4414 28.2048 11.4639C12.6677 11.5236 0.114362 22.9529 0.166175 36.9918L0.166786 37.0982C0.167396 37.2032 0.168694 37.3082 0.170755 37.4129L0.170144 37.4381C0.169457 37.4674 0.168999 37.4966 0.16877 37.5259C0.168541 37.5525 0.168541 37.5792 0.168617 37.6059L0.16877 37.6635L13.5091 41.9991C12.9309 40.4442 12.6091 38.7712 12.5929 37.0271L12.5927 36.9993C12.5618 28.6383 19.5688 21.8332 28.2431 21.7998C29.6984 21.7943 31.1083 21.9796 32.447 22.3315C32.7252 22.3489 33.0057 22.4013 33.2834 22.4915L56.406 30.0065L56.338 11.5697V4.19452Z" fill="#9DA8B8"/>
<path d="M43.5019 33.1946C43.8076 34.3548 43.9744 35.5687 43.984 36.819V36.8234C44.0148 45.1846 37.0079 51.9895 28.3336 52.0229C26.5657 52.0297 24.8652 51.7547 23.2774 51.2417C23.1547 51.2194 23.0319 51.1885 22.9097 51.1488L0.17041 43.7585L0.24359 63.594C0.244047 63.7185 0.248092 63.842 0.255494 63.9647V68.234L12.5322 72.063V64.2464C12.5562 64.0166 12.5681 63.7831 12.5673 63.5466L12.5469 58.0295C17.0626 60.7829 22.5109 62.3814 28.3719 62.3588C43.7028 62.2999 56.1285 51.1712 56.4058 37.3883L43.5019 33.1946Z" fill="#65758C"/>
</g>
<defs>
<filter id="filter0_d_2098_2" x="63.2437" y="21.4478" width="129.433" height="44.0848" filterUnits="userSpaceOnUse" color-interpolation-filters="sRGB">
<feFlood flood-opacity="0" result="BackgroundImageFix"/>
<feColorMatrix in="SourceAlpha" type="matrix" values="0 0 0 0 0 0 0 0 0 0 0 0 0 0 0 0 0 0 127 0" result="hardAlpha"/>
<feOffset dx="1.5" dy="1.5"/>
<feComposite in2="hardAlpha" operator="out"/>
<feColorMatrix type="matrix" values="0 0 0 0 0.160784 0 0 0 0 0.160784 0 0 0 0 0.160784 0 0 0 1 0"/>
<feBlend mode="normal" in2="BackgroundImageFix" result="effect1_dropShadow_2098_2"/>
<feBlend mode="normal" in="SourceGraphic" in2="effect1_dropShadow_2098_2" result="shape"/>
</filter>
<filter id="filter1_d_2098_2" x="39.0884" y="57.7661" width="162.246" height="43.4773" filterUnits="userSpaceOnUse" color-interpolation-filters="sRGB">
<feFlood flood-opacity="0" result="BackgroundImageFix"/>
<feColorMatrix in="SourceAlpha" type="matrix" values="0 0 0 0 0 0 0 0 0 0 0 0 0 0 0 0 0 0 127 0" result="hardAlpha"/>
<feOffset dx="1.5" dy="1.5"/>
<feComposite in2="hardAlpha" operator="out"/>
<feColorMatrix type="matrix" values="0 0 0 0 0.160784 0 0 0 0 0.160784 0 0 0 0 0.160784 0 0 0 1 0"/>
<feBlend mode="normal" in2="BackgroundImageFix" result="effect1_dropShadow_2098_2"/>
<feBlend mode="normal" in="SourceGraphic" in2="effect1_dropShadow_2098_2" result="shape"/>
</filter>
<filter id="filter2_d_2098_2" x="0.166016" y="0.256714" width="57.7402" height="73.3063" filterUnits="userSpaceOnUse" color-interpolation-filters="sRGB">
<feFlood flood-opacity="0" result="BackgroundImageFix"/>
<feColorMatrix in="SourceAlpha" type="matrix" values="0 0 0 0 0 0 0 0 0 0 0 0 0 0 0 0 0 0 127 0" result="hardAlpha"/>
<feOffset dx="1.5" dy="1.5"/>
<feComposite in2="hardAlpha" operator="out"/>
<feColorMatrix type="matrix" values="0 0 0 0 0.160784 0 0 0 0 0.160784 0 0 0 0 0.160784 0 0 0 1 0"/>
<feBlend mode="normal" in2="BackgroundImageFix" result="effect1_dropShadow_2098_2"/>
<feBlend mode="normal" in="SourceGraphic" in2="effect1_dropShadow_2098_2" result="shape"/>
</filter>
</defs>
</svg>
