<svg width="258" height="129" viewBox="0 0 258 129" fill="none" xmlns="http://www.w3.org/2000/svg">
<g filter="url(#filter0_i_1939_45)">
<path d="M105.42 28.4516H113.011V70.6744H105.42V67.4545C103.931 68.8731 102.433 69.8998 100.926 70.5344C99.4375 71.1504 97.8187 71.4584 96.0697 71.4584C92.1436 71.4584 88.7479 69.9371 85.8824 66.8945C83.017 63.8333 81.5842 60.0347 81.5842 55.4988C81.5842 50.795 82.9704 46.9404 85.7429 43.9351C88.5153 40.9299 91.8831 39.4273 95.8464 39.4273C97.6699 39.4273 99.3817 39.7726 100.982 40.4632C102.582 41.1539 104.061 42.1899 105.42 43.5712V28.4516ZM97.4094 46.4831C95.0463 46.4831 93.0833 47.3231 91.5203 49.003C89.9573 50.6643 89.1758 52.8016 89.1758 55.4148C89.1758 58.0468 89.9666 60.212 91.5482 61.9107C93.1484 63.6093 95.1114 64.4586 97.4373 64.4586C99.8376 64.4586 101.829 63.628 103.41 61.9667C104.992 60.2867 105.782 58.0934 105.782 55.3868C105.782 52.7362 104.992 50.5896 103.41 48.947C101.829 47.3044 99.8283 46.4831 97.4094 46.4831Z" fill="#9DA8B8"/>
<path d="M148.279 57.6548H123.801C124.155 59.8201 125.095 61.5467 126.62 62.8346C128.165 64.1039 130.128 64.7386 132.509 64.7386C135.356 64.7386 137.803 63.74 139.85 61.7427L146.269 64.7666C144.669 67.0439 142.752 68.7331 140.52 69.8345C138.287 70.9171 135.635 71.4584 132.565 71.4584C127.802 71.4584 123.922 69.9558 120.927 66.9505C117.931 63.9266 116.433 60.1467 116.433 55.6108C116.433 50.963 117.922 47.1084 120.899 44.0471C123.894 40.9672 127.644 39.4273 132.147 39.4273C136.929 39.4273 140.817 40.9672 143.813 44.0471C146.809 47.1084 148.307 51.159 148.307 56.1988L148.279 57.6548ZM140.631 51.6349C140.129 49.9363 139.133 48.555 137.645 47.4911C136.175 46.4271 134.463 45.8951 132.509 45.8951C130.388 45.8951 128.528 46.4924 126.927 47.687C125.923 48.4337 124.992 49.7497 124.136 51.6349H140.631Z" fill="#9DA8B8"/>
<path d="M170.205 44.4671L165.488 49.199C163.572 47.2951 161.832 46.3431 160.269 46.3431C159.413 46.3431 158.743 46.5297 158.259 46.9031C157.776 47.2577 157.534 47.7057 157.534 48.247C157.534 48.6577 157.683 49.0403 157.98 49.395C158.297 49.731 159.06 50.1976 160.269 50.795L163.06 52.1949C166 53.6509 168.019 55.1348 169.117 56.6468C170.214 58.1588 170.763 59.9321 170.763 61.9667C170.763 64.6733 169.768 66.9319 167.777 68.7425C165.805 70.5531 163.153 71.4584 159.822 71.4584C155.394 71.4584 151.859 69.7225 149.216 66.2505L153.905 61.1267C154.799 62.172 155.841 63.0213 157.031 63.6746C158.241 64.3093 159.311 64.6266 160.241 64.6266C161.246 64.6266 162.055 64.3839 162.669 63.8986C163.283 63.4133 163.59 62.8533 163.59 62.2187C163.59 61.0427 162.483 59.8947 160.269 58.7748L157.701 57.4868C152.789 55.0042 150.333 51.8963 150.333 48.163C150.333 45.7551 151.254 43.7018 153.096 42.0032C154.957 40.2859 157.329 39.4273 160.213 39.4273C162.185 39.4273 164.037 39.8659 165.767 40.7432C167.516 41.6019 168.996 42.8432 170.205 44.4671Z" fill="#9DA8B8"/>
<path d="M176.92 27.6676C178.26 27.6676 179.404 28.1529 180.353 29.1235C181.321 30.0942 181.805 31.2702 181.805 32.6515C181.805 34.0141 181.33 35.1807 180.381 36.1514C179.432 37.1033 178.297 37.5793 176.976 37.5793C175.618 37.5793 174.455 37.094 173.487 36.1234C172.538 35.1341 172.064 33.9394 172.064 32.5395C172.064 31.1955 172.538 30.0475 173.487 29.0955C174.436 28.1436 175.581 27.6676 176.92 27.6676ZM173.097 40.2112H180.744V70.6744H173.097V40.2112Z" fill="#9DA8B8"/>
<path d="M207.248 40.2112H214.839V66.3065C214.839 71.4584 213.807 75.2476 211.741 77.6742C208.969 80.9595 204.791 82.6021 199.209 82.6021C196.232 82.6021 193.73 82.2288 191.702 81.4821C189.673 80.7355 187.962 79.6342 186.566 78.1782C185.171 76.7409 184.138 74.9863 183.468 72.9144H191.869C192.613 73.773 193.572 74.417 194.744 74.8463C195.916 75.2943 197.302 75.5183 198.902 75.5183C200.949 75.5183 202.596 75.201 203.843 74.5663C205.089 73.9317 205.964 73.1104 206.466 72.1024C206.987 71.0944 207.248 69.3585 207.248 66.8945C205.908 68.2385 204.503 69.2091 203.033 69.8065C201.563 70.3851 199.898 70.6744 198.037 70.6744C193.962 70.6744 190.52 69.1998 187.71 66.2505C184.901 63.3013 183.496 59.5681 183.496 55.0509C183.496 50.2163 184.984 46.3338 187.962 43.4032C190.66 40.7526 193.879 39.4273 197.619 39.4273C199.368 39.4273 201.014 39.7539 202.559 40.4072C204.122 41.0419 205.685 42.0965 207.248 43.5712V40.2112ZM199.349 46.5671C196.949 46.5671 194.967 47.3791 193.404 49.003C191.841 50.6083 191.06 52.6336 191.06 55.0789C191.06 57.6174 191.86 59.6987 193.46 61.3227C195.06 62.9466 197.07 63.7586 199.489 63.7586C201.852 63.7586 203.796 62.9653 205.322 61.3787C206.866 59.7921 207.638 57.7108 207.638 55.1348C207.638 52.5963 206.866 50.5336 205.322 48.947C203.777 47.3604 201.786 46.5671 199.349 46.5671Z" fill="#9DA8B8"/>
<path d="M219.684 40.2112H227.276V43.3192C229.006 41.8632 230.569 40.8552 231.965 40.2952C233.379 39.7166 234.821 39.4273 236.291 39.4273C239.305 39.4273 241.864 40.4819 243.966 42.5912C245.734 44.3831 246.618 47.0337 246.618 50.543V70.6744H239.082V57.3188C239.082 53.6789 238.915 51.2616 238.58 50.067C238.263 48.8724 237.696 47.967 236.877 47.3511C236.077 46.7164 235.082 46.3991 233.891 46.3991C232.346 46.3991 231.016 46.9217 229.9 47.967C228.802 48.9937 228.039 50.4216 227.611 52.2509C227.388 53.2029 227.276 55.2655 227.276 58.4388V70.6744H219.684V40.2112Z" fill="#9DA8B8"/>
</g>
<g filter="url(#filter1_i_1939_45)">
<path d="M57.9875 86.278V89.6379C59.3644 88.2566 60.853 87.2206 62.4532 86.53C64.0534 85.8393 65.7652 85.494 67.5887 85.494C71.5519 85.494 74.9198 86.9966 77.6922 90.0019C80.4646 93.0071 81.8508 96.8617 81.8508 101.566C81.8508 106.101 80.4181 109.9 77.5526 112.961C74.6872 116.004 71.2914 117.525 67.3654 117.525C65.6163 117.525 63.9882 117.217 62.4811 116.601C60.9739 115.966 59.4761 114.94 57.9875 113.521V127.885H50.4238V86.278H57.9875ZM65.9978 92.5498C63.5975 92.5498 61.6066 93.3711 60.025 95.0137C58.4434 96.6564 57.6526 98.803 57.6526 101.454C57.6526 104.16 58.4434 106.353 60.025 108.033C61.6066 109.695 63.5975 110.525 65.9978 110.525C68.3236 110.525 70.2774 109.676 71.8589 107.977C73.4591 106.279 74.2592 104.113 74.2592 101.482C74.2592 98.8683 73.4777 96.731 71.9148 95.0697C70.3518 93.3898 68.3795 92.5498 65.9978 92.5498Z" fill="#65758C"/>
<path d="M115.723 103.721H91.2454C91.599 105.887 92.5386 107.613 94.0644 108.901C95.6088 110.171 97.5718 110.805 99.9535 110.805C102.8 110.805 105.247 109.807 107.294 107.809L113.713 110.833C112.113 113.111 110.197 114.8 107.964 115.901C105.731 116.984 103.079 117.525 100.009 117.525C95.2459 117.525 91.3664 116.022 88.3707 113.017C85.375 109.993 83.8771 106.213 83.8771 101.678C83.8771 97.0297 85.3657 93.1751 88.3428 90.1139C91.3385 87.0339 95.0878 85.494 99.5906 85.494C104.373 85.494 108.261 87.0339 111.257 90.1139C114.253 93.1751 115.751 97.2257 115.751 102.266L115.723 103.721ZM108.075 97.7017C107.573 96.003 106.578 94.6217 105.089 93.5578C103.619 92.4938 101.907 91.9618 99.9535 91.9618C97.8323 91.9618 95.9716 92.5591 94.3714 93.7538C93.3666 94.5004 92.4363 95.8164 91.5804 97.7017H108.075Z" fill="#65758C"/>
<path d="M119.061 86.278H126.652V89.3859C128.383 87.9299 129.946 86.9219 131.341 86.362C132.756 85.7833 134.198 85.494 135.667 85.494C138.682 85.494 141.24 86.5486 143.343 88.6579C145.11 90.4499 145.994 93.1004 145.994 96.6097V116.741H138.459V103.386C138.459 99.7456 138.291 97.3283 137.956 96.1337C137.64 94.9391 137.072 94.0338 136.254 93.4178C135.454 92.7831 134.458 92.4658 133.267 92.4658C131.723 92.4658 130.392 92.9884 129.276 94.0338C128.178 95.0604 127.415 96.4884 126.987 98.3176C126.764 99.2696 126.652 101.332 126.652 104.505V116.741H119.061V86.278Z" fill="#65758C"/>
<path d="M172.972 74.5183H180.564V116.741H172.972V113.521C171.484 114.94 169.986 115.966 168.479 116.601C166.99 117.217 165.371 117.525 163.622 117.525C159.696 117.525 156.301 116.004 153.435 112.961C150.57 109.9 149.137 106.101 149.137 101.566C149.137 96.8617 150.523 93.0071 153.296 90.0019C156.068 86.9966 159.436 85.494 163.399 85.494C165.223 85.494 166.934 85.8393 168.535 86.53C170.135 87.2206 171.614 88.2566 172.972 89.6379V74.5183ZM164.962 92.5498C162.599 92.5498 160.636 93.3898 159.073 95.0697C157.51 96.731 156.729 98.8683 156.729 101.482C156.729 104.113 157.519 106.279 159.101 107.977C160.701 109.676 162.664 110.525 164.99 110.525C167.39 110.525 169.381 109.695 170.963 108.033C172.544 106.353 173.335 104.16 173.335 101.454C173.335 98.803 172.544 96.6564 170.963 95.0137C169.381 93.3711 167.381 92.5498 164.962 92.5498Z" fill="#65758C"/>
<path d="M184.572 86.278H192.219V116.741H184.572V86.278Z" fill="#65758C"/>
<path d="M196.283 86.278H203.875V89.3859C205.605 87.9299 207.168 86.9219 208.564 86.362C209.978 85.7833 211.42 85.494 212.89 85.494C215.904 85.494 218.462 86.5486 220.565 88.6579C222.333 90.4499 223.217 93.1004 223.217 96.6097V116.741H215.681V103.386C215.681 99.7456 215.513 97.3283 215.178 96.1337C214.862 94.9391 214.295 94.0338 213.476 93.4178C212.676 92.7831 211.68 92.4658 210.489 92.4658C208.945 92.4658 207.615 92.9884 206.498 94.0338C205.4 95.0604 204.638 96.4884 204.21 98.3176C203.986 99.2696 203.875 101.332 203.875 104.505V116.741H196.283V86.278Z" fill="#65758C"/>
<path d="M250.195 86.278H257.786V112.373C257.786 117.525 256.754 121.314 254.688 123.741C251.916 127.026 247.739 128.669 242.156 128.669C239.179 128.669 236.677 128.296 234.649 127.549C232.62 126.802 230.909 125.701 229.513 124.245C228.118 122.808 227.085 121.053 226.415 118.981H234.816C235.56 119.84 236.519 120.484 237.691 120.913C238.863 121.361 240.249 121.585 241.849 121.585C243.896 121.585 245.543 121.268 246.79 120.633C248.036 119.998 248.911 119.177 249.413 118.169C249.934 117.161 250.195 115.425 250.195 112.961C248.855 114.305 247.45 115.276 245.98 115.873C244.51 116.452 242.845 116.741 240.984 116.741C236.909 116.741 233.467 115.267 230.657 112.317C227.848 109.368 226.443 105.635 226.443 101.118C226.443 96.283 227.932 92.4005 230.909 89.4699C233.607 86.8193 236.826 85.494 240.566 85.494C242.315 85.494 243.961 85.8206 245.506 86.474C247.069 87.1086 248.632 88.1632 250.195 89.6379V86.278ZM242.296 92.6338C239.896 92.6338 237.914 93.4458 236.351 95.0697C234.788 96.675 234.007 98.7003 234.007 101.146C234.007 103.684 234.807 105.765 236.407 107.389C238.007 109.013 240.017 109.825 242.436 109.825C244.799 109.825 246.743 109.032 248.269 107.445C249.813 105.859 250.585 103.777 250.585 101.202C250.585 98.663 249.813 96.6004 248.269 95.0137C246.724 93.4271 244.734 92.6338 242.296 92.6338Z" fill="#65758C"/>
</g>
<g filter="url(#filter2_i_1939_45)">
<path d="M72.6757 5.41094L56.8389 0.331177V10.3746C56.789 10.7468 56.764 11.1271 56.7654 11.5136L56.798 20.3734C50.9728 16.8215 43.9444 14.7594 36.3839 14.7885C16.3411 14.8655 0.147234 29.6092 0.214073 47.7195L0.214861 47.8567C0.215648 47.9922 0.217322 48.1276 0.21998 48.2627L0.219192 48.2952C0.218306 48.3329 0.217716 48.3706 0.21742 48.4084C0.217125 48.4428 0.217125 48.4772 0.217223 48.5116L0.21742 48.5859L17.4265 54.1789C16.6806 52.173 16.2654 50.0148 16.2445 47.765L16.2443 47.7291C16.2044 36.9434 25.2435 28.1648 36.4333 28.1218C38.3107 28.1146 40.1294 28.3537 41.8564 28.8076C42.2152 28.8301 42.5771 28.8977 42.9353 29.0141L72.7635 38.7084L72.6757 14.9249V5.41094Z" fill="#9DA8B8"/>
<path d="M56.1174 42.821C56.5117 44.3177 56.7269 45.8836 56.7392 47.4965V47.5022C56.779 58.2881 47.7401 67.0665 36.5502 67.1095C34.2697 67.1183 32.076 66.7636 30.0278 66.1018C29.8694 66.073 29.711 66.0332 29.5534 65.982L0.219727 56.4485L0.314129 82.0362C0.314719 82.1968 0.319936 82.3562 0.329485 82.5144V88.0218L16.1664 92.9613V82.8779C16.1974 82.5814 16.2127 82.2802 16.2117 81.9751L16.1854 74.858C22.0107 78.4099 29.039 80.472 36.5996 80.4429C56.3765 80.3668 72.4057 66.0108 72.7634 48.2309L56.1174 42.821Z" fill="#65758C"/>
</g>
<defs>
<filter id="filter0_i_1939_45" x="81.5842" y="27.6676" width="165.034" height="54.9345" filterUnits="userSpaceOnUse" color-interpolation-filters="sRGB">
<feFlood flood-opacity="0" result="BackgroundImageFix"/>
<feBlend mode="normal" in="SourceGraphic" in2="BackgroundImageFix" result="shape"/>
<feColorMatrix in="SourceAlpha" type="matrix" values="0 0 0 0 0 0 0 0 0 0 0 0 0 0 0 0 0 0 127 0" result="hardAlpha"/>
<feOffset dx="1.5" dy="1.5"/>
<feComposite in2="hardAlpha" operator="arithmetic" k2="-1" k3="1"/>
<feColorMatrix type="matrix" values="0 0 0 0 1 0 0 0 0 1 0 0 0 0 1 0 0 0 0.33 0"/>
<feBlend mode="normal" in2="shape" result="effect1_innerShadow_1939_45"/>
</filter>
<filter id="filter1_i_1939_45" x="50.4238" y="74.5183" width="207.362" height="54.1505" filterUnits="userSpaceOnUse" color-interpolation-filters="sRGB">
<feFlood flood-opacity="0" result="BackgroundImageFix"/>
<feBlend mode="normal" in="SourceGraphic" in2="BackgroundImageFix" result="shape"/>
<feColorMatrix in="SourceAlpha" type="matrix" values="0 0 0 0 0 0 0 0 0 0 0 0 0 0 0 0 0 0 127 0" result="hardAlpha"/>
<feOffset dx="1.5" dy="1.5"/>
<feComposite in2="hardAlpha" operator="arithmetic" k2="-1" k3="1"/>
<feColorMatrix type="matrix" values="0 0 0 0 1 0 0 0 0 1 0 0 0 0 1 0 0 0 0.33 0"/>
<feBlend mode="normal" in2="shape" result="effect1_innerShadow_1939_45"/>
</filter>
<filter id="filter2_i_1939_45" x="0.213867" y="0.331177" width="72.5496" height="92.6301" filterUnits="userSpaceOnUse" color-interpolation-filters="sRGB">
<feFlood flood-opacity="0" result="BackgroundImageFix"/>
<feBlend mode="normal" in="SourceGraphic" in2="BackgroundImageFix" result="shape"/>
<feColorMatrix in="SourceAlpha" type="matrix" values="0 0 0 0 0 0 0 0 0 0 0 0 0 0 0 0 0 0 127 0" result="hardAlpha"/>
<feOffset dx="1.5" dy="1.5"/>
<feComposite in2="hardAlpha" operator="arithmetic" k2="-1" k3="1"/>
<feColorMatrix type="matrix" values="0 0 0 0 1 0 0 0 0 1 0 0 0 0 1 0 0 0 0.33 0"/>
<feBlend mode="normal" in2="shape" result="effect1_innerShadow_1939_45"/>
</filter>
</defs>
</svg>
